<svg width="967" height="342" viewBox="0 0 967 342" fill="none" xmlns="http://www.w3.org/2000/svg">
<path d="M961.848 341.487C919.068 341.487 884.169 318.221 874.037 285.949L907.81 250.674C890.548 243.544 878.54 228.534 878.54 212.022C878.54 196.261 889.047 181.251 904.057 173.37C894.301 162.863 888.672 148.979 888.672 133.968C888.672 99.0688 919.068 72.4253 959.221 72.4253C972.355 72.4253 984.363 75.4274 994.495 80.3058C1006.5 70.1737 1017.01 55.5386 1024.14 43.5302L1047.78 61.5427C1041.78 72.05 1028.27 85.1842 1014.76 95.3162C1024.14 105.824 1029.77 118.958 1029.77 133.968C1029.77 168.867 998.998 195.511 959.221 195.511C945.711 195.511 933.328 192.509 922.82 187.255C913.814 191.758 908.561 199.263 908.561 208.27C908.561 220.278 918.317 228.909 933.328 228.909H978.359C1016.26 228.909 1041.03 251.8 1041.03 282.196C1041.03 317.471 1005 341.487 961.848 341.487ZM905.559 286.699C917.192 304.336 937.08 315.594 961.848 315.594C987.741 315.594 1010.63 303.586 1010.63 283.697C1010.63 267.561 996.747 254.427 975.357 254.427H936.33L905.559 286.699ZM918.693 133.968C918.693 154.607 935.955 169.993 959.221 169.993C982.487 169.993 999.374 154.607 999.374 133.968C999.374 113.329 982.487 97.943 959.221 97.943C935.955 97.943 918.693 113.329 918.693 133.968Z" fill="white"/>
<path d="M765.062 266.435C711.025 266.435 670.497 224.781 670.497 169.243C670.497 114.079 711.025 72.4254 765.062 72.4254C819.1 72.4254 859.628 114.079 859.628 169.243C859.628 224.781 819.1 266.435 765.062 266.435ZM700.893 169.243C700.893 209.396 727.911 239.041 765.062 239.041C801.838 239.041 829.232 209.396 829.232 169.243C829.232 129.465 801.838 99.8194 765.062 99.8194C727.911 99.8194 700.893 129.465 700.893 169.243Z" fill="white"/>
<path d="M567.161 262.683V76.178H592.678L594.179 103.197H596.431C606.188 84.8089 625.701 73.9264 651.219 73.9264C654.596 73.9264 658.349 74.3017 661.726 75.0522V104.698C657.223 103.947 655.347 103.947 650.844 103.947C616.32 103.947 596.431 127.964 596.431 169.243V262.683H567.161Z" fill="white"/>
<path d="M362.287 262.683V0H457.228C504.886 0 538.284 32.6477 538.284 78.0542C538.284 123.461 504.886 156.484 457.228 156.484H392.683V262.683H362.287ZM392.683 128.714H454.601C485.748 128.714 507.513 108.075 507.513 78.4295C507.513 48.4086 485.748 27.7693 454.601 27.7693H392.683V128.714Z" fill="white"/>
<path d="M200.08 150.48C200.08 118.207 182.818 99.8194 154.674 99.8194C124.278 99.8194 105.514 121.585 105.514 155.733V262.683H76.2441V76.178H101.762L103.638 99.0689H105.89C115.647 82.9326 135.911 72.4254 161.053 72.4254C202.332 72.4254 229.351 100.57 229.351 145.601V262.683H200.08V150.48Z" fill="white"/>
<path d="M0 262.683V0H30.3961V262.683H0Z" fill="white"/>
</svg>
