<svg width="752" height="298" viewBox="0 0 752 298" fill="none" xmlns="http://www.w3.org/2000/svg">
<path d="M684.01 222.905C641.23 222.905 611.96 197.762 610.459 162.113H640.855C643.107 183.127 657.367 196.637 684.385 196.637C704.274 196.637 721.536 188.756 721.536 170.744C721.536 157.234 713.656 147.478 692.266 141.098L665.998 133.593C632.599 124.211 616.463 105.448 616.463 81.4317C616.463 49.5345 644.983 28.8951 681.759 28.8951C718.909 28.8951 745.178 50.6603 747.429 81.0564H717.033C714.406 65.2954 700.522 54.4129 680.633 54.4129C661.494 54.4129 646.859 64.9202 646.859 81.4317C646.859 93.8153 655.115 102.071 678.006 108.45L704.274 115.58C736.171 124.962 751.932 143.725 751.932 168.867C751.932 202.266 723.037 222.905 684.01 222.905Z" fill="white"/>
<path d="M520.738 222.905C477.958 222.905 448.688 197.762 447.187 162.113H477.583C479.834 183.127 494.094 196.637 521.113 196.637C541.002 196.637 558.264 188.756 558.264 170.744C558.264 157.234 550.383 147.478 528.993 141.098L502.725 133.593C469.327 124.211 453.191 105.448 453.191 81.4317C453.191 49.5345 481.71 28.8951 518.486 28.8951C555.637 28.8951 581.905 50.6603 584.157 81.0564H553.761C551.134 65.2954 537.249 54.4129 517.36 54.4129C498.222 54.4129 483.587 64.9202 483.587 81.4317C483.587 93.8153 491.843 102.071 514.733 108.45L541.002 115.58C572.899 124.962 588.66 143.725 588.66 168.867C588.66 202.266 559.765 222.905 520.738 222.905Z" fill="white"/>
<path d="M342.88 222.905C288.843 222.905 250.566 182.377 250.566 125.712C250.566 69.7986 288.467 28.8951 342.13 28.8951C390.913 28.8951 427.314 63.7944 427.314 118.207C427.314 122.335 426.938 127.964 426.188 132.467H281.337C283.589 170.744 307.981 195.511 342.505 195.511C366.897 195.511 388.662 183.127 394.291 165.865H424.687C417.557 199.264 384.159 222.905 342.88 222.905ZM282.463 108.45H396.167C394.291 77.679 372.901 56.2892 342.505 56.2892C312.109 56.2892 288.092 77.679 282.463 108.45Z" fill="white"/>
<path d="M147.229 219.152V32.6478H172.747L174.248 59.6665H176.5C186.257 41.2787 205.77 30.3962 231.288 30.3962C234.665 30.3962 238.418 30.7714 241.795 31.522V61.1676C237.292 60.417 235.416 60.4171 230.913 60.4171C196.389 60.4171 176.5 84.4337 176.5 125.712V219.152H147.229Z" fill="white"/>
<path d="M42.571 297.957C-0.208694 297.957 -35.1079 274.691 -45.24 242.418L-11.4665 207.144C-28.7285 200.014 -40.7369 185.004 -40.7369 168.492C-40.7369 152.731 -30.2296 137.721 -15.2191 129.84C-24.9759 119.333 -30.6048 105.448 -30.6048 90.4379C-30.6048 55.5386 -0.208698 28.8951 39.9442 28.8951C53.0783 28.8951 65.0867 31.8972 75.2187 36.7756C87.2271 26.6435 97.7344 12.0083 104.864 0L128.506 18.0125C122.502 28.5198 108.992 41.654 95.4828 51.786C104.864 62.2933 110.493 75.4274 110.493 90.4379C110.493 125.337 79.7219 151.981 39.9442 151.981C26.4348 151.981 14.0512 148.979 3.54391 143.725C-5.46235 148.228 -10.716 155.733 -10.716 164.74C-10.716 176.748 -0.959211 185.379 14.0512 185.379H59.0825C96.9838 185.379 121.751 208.27 121.751 238.666C121.751 273.94 85.726 297.957 42.571 297.957ZM-13.7181 243.169C-2.085 260.806 17.8038 272.064 42.571 272.064C68.464 272.064 91.3549 260.056 91.3549 240.167C91.3549 224.031 77.4703 210.897 56.0804 210.897H17.0533L-13.7181 243.169ZM-0.583954 90.4379C-0.583954 111.077 16.678 126.463 39.9442 126.463C63.2104 126.463 80.0971 111.077 80.0971 90.4379C80.0971 69.7985 63.2104 54.4128 39.9442 54.4128C16.678 54.4128 -0.583954 69.7985 -0.583954 90.4379Z" fill="white"/>
</svg>
